<?xml version="1.0" encoding="UTF-8"?>
<svg id="Layer_2" data-name="Layer 2" xmlns="http://www.w3.org/2000/svg" viewBox="0 0 59.27 55.8">
  <defs>
    <style>
      .cls-1 {
        fill: #231f20;
        stroke-width: 0px;
      }
    </style>
  </defs>
  <g id="Isi">
    <path class="cls-1" d="M59.01,51.51L36.78,1.81c-.49-1.1-1.57-1.81-2.77-1.81h-8.81c-1.2,0-2.28.71-2.77,1.81L.27,51.52c-.9,2.01.58,4.28,2.77,4.28h6.51c1.23,0,2.35-.74,2.82-1.88l4.16-10.07h.1l4.11-9.8h-.07l7.88-18.98c.35-.88,1.59-.88,1.96,0l7.86,18.98h-14.6l-4.09,9.8h22.77l4.16,10.07c.47,1.13,1.57,1.88,2.81,1.88h6.83c2.2,0,3.67-2.28,2.77-4.29Z"/>
  </g>
</svg>