<?xml version="1.0" encoding="UTF-8"?>
<svg id="Layer_2" data-name="Layer 2" xmlns="http://www.w3.org/2000/svg" viewBox="0 0 43.21 55.8">
  <defs>
    <style>
      .cls-1 {
        fill: #231f20;
        stroke-width: 0px;
      }
    </style>
  </defs>
  <g id="Isi">
    <path class="cls-1" d="M40.16,45.44H13.69c-.47,0-.85-.39-.85-.86v-11.19c0-.47.37-.86.85-.86h22.01c1.67,0,3.04-1.35,3.04-3.04v-3.96c0-1.67-1.37-3.04-3.04-3.04H13.69c-.47,0-.85-.39-.85-.86v-10.4c0-.47.37-.86.85-.86h25.44c1.67,0,3.04-1.35,3.04-3.04V3.04c0-1.67-1.37-3.04-3.04-3.04H3.04C1.37,0,0,1.37,0,3.04v49.71c0,1.67,1.37,3.04,3.04,3.04h37.12c1.67,0,3.04-1.37,3.04-3.04v-4.28c0-1.69-1.37-3.04-3.04-3.04Z"/>
  </g>
</svg>