<?xml version="1.0" encoding="UTF-8"?>
<svg id="Layer_2" data-name="Layer 2" xmlns="http://www.w3.org/2000/svg" viewBox="0 0 61.04 57.69">
  <defs>
    <style>
      .cls-1 {
        fill: #231f20;
        stroke-width: 0px;
      }
    </style>
  </defs>
  <g id="Isi">
    <path class="cls-1" d="M60.72,24.43c-5.05-4.26-11.38-7.47-18.46-9.16,3.55,3.16,5.71,7.89,5.71,13.59,0,10.6-7.49,17.85-17.46,17.85s-17.44-7.25-17.44-17.85c0-5.73,2.2-10.5,5.78-13.66-7.08,1.66-13.41,4.82-18.49,9.04-.24,1.49-.35,3.04-.35,4.61,0,16.57,12.9,28.84,30.51,28.84s30.53-12.19,30.53-28.84c0-1.52-.1-2.99-.32-4.43ZM30.51,0C16.23,0,5.04,8.08,1.32,19.98c7.42-5.24,16.84-8.52,27.11-8.87.68-.08,1.37-.12,2.08-.12s1.42.03,2.11.12c10.31.42,19.74,3.75,27.15,9.06C56.12,8.11,44.83,0,30.51,0Z"/>
  </g>
</svg>