<?xml version="1.0" encoding="UTF-8"?>
<svg id="Layer_2" data-name="Layer 2" xmlns="http://www.w3.org/2000/svg" viewBox="0 0 48.38 55.8">
  <defs>
    <style>
      .cls-1 {
        fill: #231f20;
        stroke-width: 0px;
      }
    </style>
  </defs>
  <g id="Isi">
    <path class="cls-1" d="M36.9,37.86c7.25-3.11,11.48-9.25,11.48-17.61C48.38,7.74,39.05,0,24.14,0H3.04C1.35,0,0,1.37,0,3.04v49.71c0,1.67,1.35,3.04,3.04,3.04h6.81c1.69,0,3.04-1.37,3.04-3.04v-12.51h11.88l9.86,14.23c.56.83,1.5,1.32,2.5,1.32h6.44c2.45,0,3.9-2.77,2.48-4.78l-9.16-13.15ZM23.43,29.97h-10.53V10.53h10.53c7.89,0,11.87,3.58,11.87,9.72s-3.97,9.72-11.87,9.72Z"/>
  </g>
</svg>