<?xml version="1.0" encoding="UTF-8"?>
<svg id="Layer_2" data-name="Layer 2" xmlns="http://www.w3.org/2000/svg" viewBox="0 0 55.16 51.93">
  <defs>
    <style>
      .cls-1 {
        fill: #fff;
        stroke-width: 0px;
      }
    </style>
  </defs>
  <g id="Isi">
    <path class="cls-1" d="M54.91,47.93L34.23,1.68c-.46-1.02-1.46-1.68-2.58-1.68h-8.2c-1.12,0-2.12.66-2.58,1.68L.25,47.95c-.83,1.87.54,3.98,2.58,3.98h6.06c1.15,0,2.19-.69,2.63-1.75l3.87-9.38h.09l3.82-9.12h-.06l7.33-17.67c.33-.82,1.48-.82,1.82,0l7.31,17.67h-13.59l-3.81,9.12h21.19l3.87,9.38c.44,1.05,1.46,1.75,2.61,1.75h6.36c2.04,0,3.41-2.12,2.58-4Z"/>
  </g>
</svg>