<?xml version="1.0" encoding="UTF-8"?>
<svg id="Layer_2" data-name="Layer 2" xmlns="http://www.w3.org/2000/svg" viewBox="0 0 40.21 51.93">
  <defs>
    <style>
      .cls-1 {
        fill: #fff;
        stroke-width: 0px;
      }
    </style>
  </defs>
  <g id="Isi">
    <path class="cls-1" d="M37.38,42.28H12.74c-.44,0-.79-.36-.79-.8v-10.41c0-.44.35-.8.79-.8h20.48c1.56,0,2.83-1.26,2.83-2.83v-3.68c0-1.56-1.27-2.83-2.83-2.83H12.74c-.44,0-.79-.36-.79-.8v-9.67c0-.44.35-.8.79-.8h23.67c1.56,0,2.83-1.26,2.83-2.83v-3.98c0-1.56-1.27-2.83-2.83-2.83H2.83C1.27,0,0,1.27,0,2.83v46.26c0,1.56,1.27,2.83,2.83,2.83h34.54c1.56,0,2.83-1.27,2.83-2.83v-3.98c0-1.57-1.27-2.83-2.83-2.83Z"/>
  </g>
</svg>