<?xml version="1.0" encoding="UTF-8"?>
<svg id="Layer_2" data-name="Layer 2" xmlns="http://www.w3.org/2000/svg" xmlns:xlink="http://www.w3.org/1999/xlink" viewBox="0 0 181.58 52.28">
  <defs>
    <style>
      .cls-1 {
        fill: url(#linear-gradient);
      }

      .cls-1, .cls-2, .cls-3, .cls-4, .cls-5, .cls-6, .cls-7 {
        stroke-width: 0px;
      }

      .cls-2 {
        fill: url(#linear-gradient-6);
      }

      .cls-4 {
        fill: url(#linear-gradient-5);
      }

      .cls-5 {
        fill: url(#linear-gradient-2);
      }

      .cls-6 {
        fill: url(#linear-gradient-3);
      }

      .cls-7 {
        fill: url(#linear-gradient-4);
      }
    </style>
    <linearGradient id="linear-gradient" x1="4.25" y1="15.93" x2="30.33" y2="61.11" gradientUnits="userSpaceOnUse">
      <stop offset="0" stop-color="#ff2935"/>
      <stop offset=".14" stop-color="#f52734"/>
      <stop offset=".37" stop-color="#dd2433"/>
      <stop offset=".59" stop-color="#be2033"/>
      <stop offset=".86" stop-color="#9c1b32"/>
      <stop offset="1" stop-color="#891932"/>
    </linearGradient>
    <linearGradient id="linear-gradient-2" x1="7.95" y1="37.96" x2="40.96" y2="57.02" gradientUnits="userSpaceOnUse">
      <stop offset=".25" stop-color="#b10f2a"/>
      <stop offset=".67" stop-color="#671932"/>
    </linearGradient>
    <linearGradient id="linear-gradient-3" x1=".69" y1="46.05" x2="43.66" y2="46.05" gradientUnits="userSpaceOnUse">
      <stop offset=".25" stop-color="#820f2a"/>
      <stop offset=".67" stop-color="#451932"/>
    </linearGradient>
    <linearGradient id="linear-gradient-4" x1="20.42" y1=".52" x2="23.93" y2=".52" xlink:href="#linear-gradient"/>
    <linearGradient id="linear-gradient-5" x1="20.18" y1="2.32" x2="24.18" y2="2.32" xlink:href="#linear-gradient-2"/>
    <linearGradient id="linear-gradient-6" x1="20.2" y1="2.96" x2="24.17" y2="2.96" xlink:href="#linear-gradient-3"/>
  </defs>
  <g id="Layer_1-2" data-name="Layer 1">
    <g>
      <g>
        <path class="cls-3" d="M68.01,25.15c-1.76-1.48-3.95-2.59-6.41-3.18,1.23,1.1,1.98,2.74,1.98,4.72,0,3.68-2.6,6.2-6.06,6.2s-6.06-2.52-6.06-6.2c0-1.99.76-3.64,2.01-4.74-2.46.58-4.65,1.67-6.42,3.14-.08.52-.12,1.06-.12,1.6,0,5.75,4.48,10.01,10.59,10.01s10.6-4.23,10.6-10.01c0-.53-.04-1.04-.11-1.54ZM57.53,16.67c-4.96,0-8.84,2.81-10.14,6.94,2.58-1.82,5.85-2.96,9.41-3.08.23-.03.48-.04.72-.04s.49.01.73.04c3.58.15,6.86,1.3,9.43,3.15-1.27-4.18-5.19-7-10.16-7Z"/>
        <path class="cls-3" d="M88.49,32.78h-9.19c-.16,0-.29-.13-.29-.3v-3.89c0-.16.13-.3.29-.3h7.64c.58,0,1.06-.47,1.06-1.06v-1.37c0-.58-.48-1.06-1.06-1.06h-7.64c-.16,0-.29-.13-.29-.3v-3.61c0-.16.13-.3.29-.3h8.83c.58,0,1.06-.47,1.06-1.06v-1.48c0-.58-.48-1.06-1.06-1.06h-12.53c-.58,0-1.06.48-1.06,1.06v17.26c0,.58.48,1.06,1.06,1.06h12.89c.58,0,1.06-.48,1.06-1.06v-1.48c0-.59-.48-1.06-1.06-1.06Z"/>
        <path class="cls-3" d="M109.8,17h-14.77c-.59,0-1.06.48-1.06,1.06v1.54c0,.58.47,1.06,1.06,1.06h5.14v14.66c0,.58.47,1.06,1.06,1.06h2.37c.58,0,1.06-.48,1.06-1.06v-14.66h5.14c.58,0,1.06-.48,1.06-1.06v-1.54c0-.58-.48-1.06-1.06-1.06Z"/>
        <path class="cls-3" d="M133.86,34.89l-7.72-17.26c-.17-.38-.55-.63-.96-.63h-3.06c-.42,0-.79.25-.96.63l-7.69,17.26c-.31.7.2,1.48.96,1.48h2.26c.43,0,.82-.26.98-.65l1.44-3.5h.04l1.43-3.4h-.02l2.74-6.59c.12-.31.55-.31.68,0l2.73,6.59h-5.07l-1.42,3.4h7.91l1.44,3.5c.16.39.55.65.97.65h2.37c.76,0,1.27-.79.96-1.49Z"/>
        <path class="cls-3" d="M152.4,30.15c2.52-1.08,3.99-3.21,3.99-6.12,0-4.34-3.24-7.03-8.42-7.03h-7.32c-.59,0-1.06.48-1.06,1.06v17.26c0,.58.47,1.06,1.06,1.06h2.37c.59,0,1.06-.48,1.06-1.06v-4.34h4.13l3.42,4.94c.19.29.52.46.87.46h2.24c.85,0,1.36-.96.86-1.66l-3.18-4.57ZM147.73,27.41h-3.66v-6.75h3.66c2.74,0,4.12,1.24,4.12,3.37s-1.38,3.37-4.12,3.37Z"/>
        <path class="cls-3" d="M181.49,34.89l-7.72-17.26c-.17-.38-.55-.63-.96-.63h-3.06c-.42,0-.79.25-.96.63l-7.69,17.26c-.31.7.2,1.48.97,1.48h2.26c.42,0,.81-.26.97-.65l.78-1.9.14-.34.52-1.26h0l2.39-5.72,1.77-4.27c.12-.31.56-.31.68,0l2.73,6.59h-5.1l-1.42,3.4h7.94l1.44,3.5c.16.39.55.65.97.65h2.37c.76,0,1.27-.79.96-1.49Z"/>
      </g>
      <g>
        <g>
          <path class="cls-1" d="M44.18,51.44c-.12.24-.3.45-.51.6l-20.91-12.06c-.36-.21-.78-.21-1.14,0L.69,52.04c-.21-.14-.39-.35-.51-.6-.22-.44-.26-.98-.02-1.5L20.91,6.63c.54-1.13,1.99-1.13,2.53,0l20.75,43.31c.24.51.2,1.06-.02,1.5Z"/>
          <path class="cls-5" d="M44.19,51.42c-.12.25-.31.47-.52.62l-20.91-12.06c-.36-.21-.78-.21-1.14,0L.69,52.04c-.21-.15-.4-.36-.52-.61l21.22-23c.45-.48,1.14-.48,1.58,0l21.22,22.99Z"/>
          <path class="cls-6" d="M43.66,52.04c-.29.25-.66.3-1.05.19l-18.6-5.54s-.04-.01-.06-.02c-1.17-.33-2.37-.33-3.54,0-.02,0-.04,0-.06.02h0L1.75,52.23c-.39.12-.76.06-1.06-.19l20.92-12.06c.36-.21.78-.21,1.14,0l20.91,12.06Z"/>
        </g>
        <g>
          <path class="cls-7" d="M23.93,1.04c-.51-.26-1.11-.41-1.75-.41s-1.24.15-1.76.41c.34-.62,1-1.04,1.76-1.04s1.41.42,1.75,1.04Z"/>
          <path class="cls-4" d="M24.18,2c0,.06,0,.12,0,.18-.09,1.02-.95,1.82-1.99,1.82s-1.85-.75-1.98-1.73c-.01-.09-.02-.18-.02-.27,0-.23.04-.44.11-.65.04-.11.08-.22.14-.32.51-.26,1.12-.41,1.76-.41s1.24.15,1.75.41c.06.1.1.21.14.32.07.2.11.42.11.65Z"/>
          <path class="cls-2" d="M24.17,2.18c-.09,1.02-.95,1.82-1.99,1.82s-1.85-.75-1.98-1.73c.65-.24,1.37-.37,2.12-.37.65,0,1.28.1,1.86.28Z"/>
        </g>
      </g>
    </g>
  </g>
</svg>