<?xml version="1.0" encoding="UTF-8"?>
<svg id="Layer_2" data-name="Layer 2" xmlns="http://www.w3.org/2000/svg" xmlns:xlink="http://www.w3.org/1999/xlink" viewBox="0 0 200.38 57.7">
  <defs>
    <style>
      .cls-1 {
        fill: url(#linear-gradient);
      }

      .cls-1, .cls-2, .cls-3, .cls-4, .cls-5, .cls-6, .cls-7 {
        stroke-width: 0px;
      }

      .cls-2 {
        fill: url(#linear-gradient-6);
      }

      .cls-3 {
        fill: url(#linear-gradient-5);
      }

      .cls-4 {
        fill: #fff;
      }

      .cls-5 {
        fill: url(#linear-gradient-2);
      }

      .cls-6 {
        fill: url(#linear-gradient-3);
      }

      .cls-7 {
        fill: url(#linear-gradient-4);
      }
    </style>
    <linearGradient id="linear-gradient" x1="4.69" y1="17.59" x2="33.47" y2="67.43" gradientUnits="userSpaceOnUse">
      <stop offset="0" stop-color="#ff2935"/>
      <stop offset=".14" stop-color="#f52734"/>
      <stop offset=".36" stop-color="#dc2433"/>
      <stop offset=".59" stop-color="#bd2033"/>
      <stop offset=".86" stop-color="#9b1b32"/>
      <stop offset="1" stop-color="#881932"/>
    </linearGradient>
    <linearGradient id="linear-gradient-2" x1="8.77" y1="41.89" x2="45.2" y2="62.93" gradientUnits="userSpaceOnUse">
      <stop offset=".25" stop-color="#b00f2a"/>
      <stop offset=".67" stop-color="#671932"/>
    </linearGradient>
    <linearGradient id="linear-gradient-3" x1=".76" y1="50.82" x2="48.19" y2="50.82" gradientUnits="userSpaceOnUse">
      <stop offset=".25" stop-color="#810f2a"/>
      <stop offset=".67" stop-color="#451932"/>
    </linearGradient>
    <linearGradient id="linear-gradient-4" x1="22.54" y1=".57" x2="26.41" y2=".57" xlink:href="#linear-gradient"/>
    <linearGradient id="linear-gradient-5" x1="22.27" y1="2.56" x2="26.69" y2="2.56" xlink:href="#linear-gradient-2"/>
    <linearGradient id="linear-gradient-6" x1="22.29" y1="3.26" x2="26.68" y2="3.26" xlink:href="#linear-gradient-3"/>
  </defs>
  <g id="Isi">
    <g>
      <g>
        <path class="cls-4" d="M75.06,27.76c-1.94-1.63-4.36-2.86-7.07-3.51,1.36,1.21,2.19,3.02,2.19,5.21,0,4.06-2.87,6.84-6.69,6.84s-6.68-2.78-6.68-6.84c0-2.2.84-4.02,2.22-5.23-2.71.63-5.14,1.85-7.09,3.47-.09.57-.14,1.17-.14,1.77,0,6.35,4.94,11.05,11.69,11.05s11.7-4.67,11.7-11.05c0-.58-.04-1.15-.12-1.7ZM63.48,18.4c-5.47,0-9.76,3.1-11.19,7.66,2.84-2.01,6.45-3.26,10.39-3.4.26-.03.52-.05.8-.05s.54.01.81.05c3.95.16,7.57,1.44,10.4,3.47-1.4-4.62-5.73-7.73-11.21-7.73Z"/>
        <path class="cls-4" d="M97.66,36.17h-10.14c-.18,0-.32-.15-.32-.33v-4.29c0-.18.14-.33.32-.33h8.43c.64,0,1.17-.52,1.17-1.17v-1.52c0-.64-.52-1.17-1.17-1.17h-8.43c-.18,0-.32-.15-.32-.33v-3.98c0-.18.14-.33.32-.33h9.75c.64,0,1.17-.52,1.17-1.17v-1.64c0-.64-.52-1.17-1.17-1.17h-13.83c-.64,0-1.17.52-1.17,1.17v19.05c0,.64.52,1.17,1.17,1.17h14.22c.64,0,1.17-.52,1.17-1.17v-1.64c0-.65-.52-1.17-1.17-1.17Z"/>
        <path class="cls-4" d="M121.18,18.76h-16.3c-.65,0-1.17.52-1.17,1.17v1.7c0,.64.52,1.17,1.17,1.17h5.67v16.18c0,.64.52,1.17,1.17,1.17h2.62c.64,0,1.17-.52,1.17-1.17v-16.18h5.67c.64,0,1.17-.52,1.17-1.17v-1.7c0-.64-.52-1.17-1.17-1.17Z"/>
        <path class="cls-4" d="M147.72,38.5l-8.52-19.04c-.19-.42-.6-.69-1.06-.69h-3.37c-.46,0-.87.27-1.06.69l-8.49,19.05c-.34.77.22,1.64,1.06,1.64h2.49c.47,0,.9-.28,1.08-.72l1.59-3.86h.04l1.57-3.76h-.03l3.02-7.27c.14-.34.61-.34.75,0l3.01,7.27h-5.6l-1.57,3.76h8.72l1.59,3.86c.18.43.6.72,1.08.72h2.62c.84,0,1.41-.87,1.06-1.65Z"/>
        <path class="cls-4" d="M168.19,33.27c2.78-1.19,4.4-3.54,4.4-6.75,0-4.79-3.58-7.76-9.29-7.76h-8.08c-.65,0-1.17.52-1.17,1.17v19.05c0,.64.52,1.17,1.17,1.17h2.61c.65,0,1.17-.52,1.17-1.17v-4.79h4.55l3.78,5.45c.21.32.58.51.96.51h2.47c.94,0,1.5-1.06.95-1.83l-3.51-5.04ZM163.03,30.25h-4.04v-7.45h4.04c3.02,0,4.55,1.37,4.55,3.72s-1.52,3.72-4.55,3.72Z"/>
        <path class="cls-4" d="M200.28,38.5l-8.52-19.04c-.19-.42-.6-.69-1.06-.69h-3.37c-.46,0-.87.27-1.06.69l-8.49,19.05c-.34.77.22,1.64,1.07,1.64h2.49c.47,0,.89-.28,1.07-.72l.86-2.09.16-.38.58-1.39h0l2.64-6.32,1.96-4.72c.14-.34.62-.34.75,0l3.01,7.27h-5.63l-1.57,3.76h8.76l1.59,3.86c.18.43.6.72,1.08.72h2.62c.84,0,1.41-.87,1.06-1.65Z"/>
      </g>
      <g>
        <g>
          <path class="cls-1" d="M48.75,56.77c-.13.27-.33.5-.57.66l-23.08-13.31c-.4-.23-.86-.23-1.26,0L.76,57.43c-.24-.16-.43-.39-.56-.66-.24-.48-.28-1.09-.02-1.65L23.08,7.32c.6-1.25,2.2-1.25,2.8,0l22.9,47.8c.27.57.22,1.17-.02,1.66Z"/>
          <path class="cls-5" d="M48.76,56.75c-.13.28-.34.51-.58.68l-23.08-13.31c-.4-.23-.86-.23-1.26,0L.76,57.43c-.24-.17-.44-.4-.57-.67l23.41-25.38c.49-.53,1.26-.53,1.75,0l23.41,25.37Z"/>
          <path class="cls-6" d="M48.19,57.43c-.32.27-.73.33-1.16.21l-20.53-6.11s-.05-.01-.07-.02c-1.29-.37-2.62-.37-3.9,0-.02,0-.04.01-.07.02h0L1.93,57.63c-.43.13-.84.07-1.16-.2l23.08-13.31c.4-.23.86-.23,1.26,0l23.08,13.31Z"/>
        </g>
        <g>
          <path class="cls-7" d="M26.41,1.15c-.57-.29-1.23-.45-1.94-.45s-1.37.16-1.94.45c.38-.68,1.1-1.15,1.94-1.15s1.56.46,1.94,1.15Z"/>
          <path class="cls-3" d="M26.69,2.21c0,.07,0,.13,0,.2-.1,1.13-1.05,2.01-2.2,2.01s-2.04-.83-2.19-1.91c-.01-.1-.02-.2-.02-.3,0-.25.04-.49.12-.71.04-.12.09-.24.15-.35.57-.29,1.23-.45,1.94-.45s1.37.16,1.94.45c.06.11.11.23.15.35.08.22.12.46.12.71Z"/>
          <path class="cls-2" d="M26.68,2.41c-.1,1.13-1.05,2.01-2.2,2.01s-2.04-.83-2.19-1.91c.72-.26,1.51-.4,2.34-.4.72,0,1.41.11,2.05.31Z"/>
        </g>
      </g>
    </g>
  </g>
</svg>