<?xml version="1.0" encoding="UTF-8"?>
<svg id="Layer_2" data-name="Layer 2" xmlns="http://www.w3.org/2000/svg" viewBox="0 0 56.8 53.69">
  <defs>
    <style>
      .cls-1 {
        fill: #fff;
        stroke-width: 0px;
      }
    </style>
  </defs>
  <g id="Isi">
    <path class="cls-1" d="M56.5,22.73c-4.7-3.96-10.59-6.95-17.18-8.53,3.3,2.94,5.32,7.35,5.32,12.65,0,9.86-6.97,16.61-16.25,16.61s-16.23-6.75-16.23-16.61c0-5.33,2.04-9.77,5.38-12.71-6.59,1.54-12.47,4.48-17.21,8.42-.22,1.38-.33,2.83-.33,4.29,0,15.42,12,26.84,28.39,26.84s28.41-11.34,28.41-26.84c0-1.42-.09-2.78-.3-4.12ZM28.39,0C15.1,0,4.69,7.52,1.23,18.59c6.91-4.88,15.67-7.93,25.23-8.26.63-.08,1.27-.11,1.93-.11s1.32.03,1.97.11c9.6.39,18.37,3.49,25.26,8.43C52.22,7.55,41.72,0,28.39,0Z"/>
  </g>
</svg>