<?xml version="1.0" encoding="UTF-8"?>
<svg id="Layer_2" data-name="Layer 2" xmlns="http://www.w3.org/2000/svg" viewBox="0 0 45.02 51.93">
  <defs>
    <style>
      .cls-1 {
        fill: #fff;
        stroke-width: 0px;
      }
    </style>
  </defs>
  <g id="Isi">
    <path class="cls-1" d="M34.34,35.24c6.75-2.89,10.68-8.6,10.68-16.39C45.02,7.2,36.34,0,22.46,0H2.83C1.26,0,0,1.27,0,2.83v46.26c0,1.56,1.26,2.83,2.83,2.83h6.34c1.57,0,2.83-1.27,2.83-2.83v-11.64h11.06l9.17,13.24c.52.77,1.4,1.23,2.33,1.23h5.99c2.28,0,3.63-2.58,2.31-4.45l-8.53-12.24ZM21.8,27.89h-9.8V9.8h9.8c7.35,0,11.04,3.33,11.04,9.04s-3.7,9.04-11.04,9.04Z"/>
  </g>
</svg>