<?xml version="1.0" encoding="UTF-8"?>
<svg xmlns="http://www.w3.org/2000/svg" version="1.1" viewBox="0 0 100 100">
  <defs>
    <style>
      .cls-1 {
        fill: #c01c30;
      }

      .cls-2 {
        fill: #fff;
      }
    </style>
  </defs>
  <!-- Generator: Adobe Illustrator 28.7.1, SVG Export Plug-In . SVG Version: 1.2.0 Build 142)  -->
  <g>
    <g id="Layer_1">
      <g>
        <circle class="cls-1" cx="50" cy="50" r="45"/>
        <g id="iOUwQB">
          <path class="cls-2" d="M49.96,70.51c-8.63,0-17.25,0-25.88,0-.85,0-1.65-.15-2.38-.63-.96-.62-1.59-1.54-1.87-2.72-.11-.47-.15-.97-.15-1.46,0-10.55,0-21.09,0-31.64,0-1.83.77-3.17,2.2-4.06.6-.37,1.27-.53,1.97-.53.07,0,.15,0,.22,0,17.28,0,34.57,0,51.85,0,.71,0,1.39.11,2.03.44.88.45,1.52,1.17,1.95,2.12.32.72.43,1.49.43,2.28,0,8.17,0,16.33,0,24.5,0,2.33,0,4.65,0,6.98,0,1.51-.51,2.75-1.56,3.7-.78.72-1.72,1.01-2.73,1.01-1.68,0-3.37,0-5.05,0-7.01,0-14.01,0-21.02,0ZM75.26,32.54H24.72c.15.17.25.29.35.39,1.65,1.58,3.3,3.17,4.96,4.75,2.38,2.28,4.76,4.56,7.14,6.84,1.91,1.83,3.82,3.65,5.73,5.48,1.87,1.79,3.76,3.56,5.61,5.39.78.77,2.18.77,2.96,0,1.85-1.82,3.74-3.59,5.61-5.39,2.58-2.47,5.17-4.94,7.75-7.42,1.64-1.57,3.28-3.14,4.92-4.71,1.75-1.68,3.5-3.35,5.25-5.03.08-.07.14-.16.25-.3ZM24.9,67.45h50.19c-.11-.12-.16-.2-.22-.26-2.39-2.12-4.79-4.24-7.19-6.36-1.92-1.7-3.85-3.39-5.77-5.09-1.07-.94-2.14-1.89-3.2-2.84-.15-.14-.27-.14-.43,0-.46.45-.93.89-1.4,1.33-1.35,1.28-2.68,2.57-4.04,3.83-.65.61-1.43.9-2.29,1.02-.46.07-.9.02-1.35-.04-.28-.04-.56-.12-.82-.22-.66-.25-1.21-.71-1.74-1.21-1.64-1.56-3.28-3.12-4.91-4.69-.17-.16-.29-.16-.46,0-.8.72-1.6,1.42-2.41,2.13-2.02,1.78-4.04,3.57-6.05,5.35-2.55,2.26-5.11,4.52-7.66,6.78-.08.07-.14.15-.25.27ZM77.48,65.58s.04-.04.06-.06v-30.99s-.04-.03-.06-.04c-5.62,5.39-11.23,10.77-16.89,16.2,5.66,4.99,11.27,9.94,16.89,14.89ZM22.52,34.5s-.04.04-.07.05v30.99s.04.03.06.04c5.62-4.95,11.24-9.91,16.89-14.89-5.67-5.43-11.28-10.81-16.89-16.2Z"/>
        </g>
      </g>
    </g>
  </g>
</svg>