<?xml version="1.0" encoding="UTF-8"?>
<svg xmlns="http://www.w3.org/2000/svg" version="1.1" viewBox="0 0 100 100">
  <defs>
    <style>
      .cls-1 {
        fill: #c01c30;
      }

      .cls-2 {
        fill: #fff;
      }
    </style>
  </defs>
  <!-- Generator: Adobe Illustrator 28.7.1, SVG Export Plug-In . SVG Version: 1.2.0 Build 142)  -->
  <g>
    <g id="Layer_1">
      <g>
        <circle class="cls-1" cx="50" cy="50" r="45"/>
        <g id="X0VoQK">
          <path class="cls-2" d="M23.89,37.82c-.02-2.97.92-5.52,3.13-7.59,1.61-1.5,3.12-3.11,4.68-4.66,2.3-2.29,5.43-2.32,7.75-.04,1.75,1.72,3.48,3.45,5.19,5.2,2.22,2.27,2.23,5.4.03,7.68-1.4,1.45-2.82,2.87-4.27,4.27-.4.39-.48.75-.36,1.27.53,2.37,1.65,4.47,3.06,6.41,2.63,3.63,5.85,6.62,9.94,8.56,1.04.49,2.18.77,3.3,1.08.23.06.61-.06.79-.24,1.42-1.37,2.8-2.77,4.19-4.17,2.49-2.52,5.63-2.54,8.12-.04,1.69,1.69,3.38,3.37,5.04,5.09,2.18,2.24,2.18,5.4-.02,7.63-1.76,1.79-3.53,3.57-5.32,5.33-2.18,2.14-4.89,2.69-7.81,2.52-4.82-.29-9.09-2.19-13.11-4.68-8.75-5.41-15.72-12.57-20.72-21.58-1.87-3.36-3.22-6.92-3.53-10.8-.03-.41-.05-.83-.07-1.24ZM62.02,73.26c1.82-.02,3.64-.33,5.07-1.76,1.75-1.74,3.5-3.48,5.24-5.24,1.14-1.15,1.11-2.53-.05-3.68-1.66-1.66-3.32-3.32-4.97-4.98-1.25-1.25-2.59-1.25-3.85,0-1.61,1.61-3.23,3.22-4.83,4.86-.49.51-1.06.77-1.73.6-1.55-.38-3.17-.61-4.6-1.26-5.5-2.49-9.67-6.51-12.81-11.61-1.34-2.17-2.29-4.5-2.53-7.09-.06-.72.14-1.27.66-1.78,1.65-1.61,3.26-3.25,4.88-4.89,1.15-1.16,1.16-2.52.02-3.68-1.7-1.73-3.42-3.45-5.15-5.16-1.09-1.08-2.45-1.09-3.53-.02-1.76,1.74-3.49,3.49-5.24,5.24-.85.85-1.37,1.86-1.6,3.04-.42,2.16-.11,4.26.48,6.33,1.06,3.71,2.85,7.07,5.04,10.23,5.16,7.46,11.55,13.58,19.62,17.82,3.07,1.61,6.27,2.84,9.89,3.01Z"/>
        </g>
      </g>
    </g>
  </g>
</svg>