<?xml version="1.0" encoding="UTF-8"?>
<svg xmlns="http://www.w3.org/2000/svg" version="1.1" viewBox="0 0 100 100">
  <defs>
    <style>
      .cls-1 {
        fill: #c01c30;
      }

      .cls-2 {
        fill: #fff;
      }
    </style>
  </defs>
  <!-- Generator: Adobe Illustrator 28.7.1, SVG Export Plug-In . SVG Version: 1.2.0 Build 142)  -->
  <g>
    <g id="Layer_1">
      <g>
        <circle class="cls-1" cx="50" cy="50" r="45"/>
        <g id="dos79v">
          <path class="cls-2" d="M49.98,79.36s-.04,0-.06,0c-.98-.02-1.87-.49-2.45-1.29-1.48-2.05-2.99-4.07-4.51-6.08-3.46-4.6-7.03-9.36-10.06-14.43-1.67-2.8-3.53-6.15-4.63-9.82-1.89-6.31-.83-12.47,3.14-18.32,3.07-4.51,7.3-7.52,12.58-8.94,6.12-1.65,12.44-.77,17.77,2.48,5.32,3.24,8.99,8.42,10.33,14.6.24,1.08.35,2.15.44,3,.03.32.06.61.1.85v.19c0,2.58-.4,4.85-1.31,7.37-1.46,4.07-3.68,7.79-5.65,10.89-2.72,4.26-5.78,8.34-8.75,12.29-1.11,1.48-2.22,2.95-3.31,4.44-.14.19-.27.39-.41.58-.22.31-.43.62-.66.92-.62.8-1.58,1.27-2.56,1.27ZM50.06,22.48c-1.77,0-3.56.24-5.34.71-4.6,1.24-8.3,3.86-10.98,7.8-3.53,5.19-4.43,10.39-2.77,15.92,1.01,3.36,2.69,6.4,4.35,9.19,2.95,4.94,6.48,9.64,9.89,14.18,1.53,2.03,3.06,4.07,4.54,6.13.04.05.16.13.22.12.06,0,.21-.02.33-.18.2-.25.38-.52.57-.79.15-.22.3-.43.45-.64,1.1-1.5,2.22-2.98,3.33-4.46,2.93-3.9,5.97-7.94,8.63-12.11,1.99-3.12,4.01-6.52,5.37-10.33.79-2.2,1.14-4.1,1.16-6.34-.03-.24-.06-.53-.09-.83-.08-.79-.19-1.77-.39-2.7-1.18-5.41-4.39-9.95-9.04-12.79-3.13-1.9-6.64-2.88-10.24-2.88ZM50.07,53.56c-2.89,0-5.6-1.05-7.7-2.99-2.2-2.04-3.47-4.84-3.57-7.88-.1-2.99.98-5.86,3.05-8.07,2.03-2.17,4.76-3.42,7.67-3.51.13,0,.26,0,.39,0,6.25,0,11.08,4.71,11.3,11.12h0c.21,5.91-4.68,11.1-10.67,11.34-.16,0-.32,0-.47,0ZM49.9,33.91c-.1,0-.2,0-.29,0-2.16.07-4.18,1-5.7,2.62-1.55,1.66-2.37,3.81-2.29,6.05.08,2.29,1.03,4.39,2.67,5.91,1.65,1.53,3.83,2.33,6.14,2.24,4.39-.17,8.11-4.11,7.96-8.43h0c-.17-4.84-3.8-8.4-8.49-8.4Z"/>
        </g>
      </g>
    </g>
  </g>
</svg>