<?xml version="1.0" encoding="UTF-8"?>
<svg id="Layer_2" data-name="Layer 2" xmlns="http://www.w3.org/2000/svg" viewBox="0 0 49.84 50.98">
  <defs>
    <style>
      .cls-1, .cls-2 {
        fill: #f0f1f1;
      }

      .cls-1, .cls-3 {
        stroke: #000;
        stroke-miterlimit: 10;
        stroke-width: 1.52px;
      }

      .cls-4, .cls-2 {
        stroke-width: 0px;
      }

      .cls-3 {
        fill: none;
        stroke-linecap: round;
      }
    </style>
  </defs>
  <g id="Isi">
    <g id="bQcp5N">
      <path class="cls-4" d="M11.64,6.81v1.52c.27,0,.49.05.66.14.5.28.7.62.7,1.16,0,1.76,0,3.52,0,5.28v2.64c0,.3-.03.51-.09.66-.1.26-.25.44-.48.6-.24.16-.48.24-.75.24-.03,0-.06,0-.07,0h-.09s-.05,0-.05,0c-.98,0-1.69.73-1.69,1.75,0,.08,0,.15,0,.23-.15-.11-.29-.23-.44-.34-.52-.4-1.03-.79-1.54-1.18-.38-.3-.83-.46-1.33-.46h-3.45s-.01,0-.01,0c-.27,0-.48-.05-.69-.15-.69-.34-.79-.72-.79-1.09-.02-2.18-.02-4.4-.01-6.55v-1.6c0-.35.12-.62.35-.87.29-.31.66-.46,1.13-.46.72,0,1.44,0,2.15,0s1.44,0,2.15,0h1.43s1.43,0,1.43,0c.48,0,.96,0,1.45,0l.03-1.52M11.64,6.81s-.03,0-.04,0c-.48,0-.95,0-1.43,0-.95,0-1.91,0-2.86,0-.72,0-1.43,0-2.15,0s-1.43,0-2.15,0c-.87,0-1.64.29-2.24.93C.27,8.26.02,8.91.01,9.64c0,2.72-.02,5.45,0,8.18.01,1.13.63,1.93,1.64,2.43.43.22.88.3,1.36.3.02,0,.03,0,.05,0h3.41c.15,0,.27.04.39.13,1.04.81,2.1,1.61,3.14,2.42.15.12.31.17.46.17.15,0,.29-.04.44-.12.28-.14.4-.4.4-.7,0-.56,0-1.12,0-1.68,0-.15.04-.22.18-.22.01,0,.03,0,.04,0,.06,0,.12,0,.18,0,.58,0,1.11-.17,1.6-.5.48-.32.82-.75,1.04-1.28.16-.4.2-.81.2-1.23,0-2.64,0-5.28,0-7.92,0-1.11-.52-1.93-1.47-2.47-.43-.24-.91-.34-1.41-.34h0Z"/>
      <g id="giupaQ">
        <g>
          <path class="cls-4" d="M34.3,23.29c4.39,1.33,7.77,6.57,8.12,12.69.08,1.47-.28,2.42-1.26,3.29-1.45,1.29-3.13,1.99-5.19,2.65-3.23,1.03-6.52,1.19-8.68,1.22-4.37-.04-7.65-.59-10.63-1.77-1.35-.53-2.5-1.19-3.52-2.01-1.15-.92-1.54-2.21-1.3-4.32.66-5.8,3.89-10.45,8.08-11.75,2.04,1.75,4.4,2.6,7.2,2.6.22,0,.44,0,.66-.02,2.42-.11,4.61-.98,6.51-2.59M34.07,21.68c-.14,0-.31.06-.42.16-1.78,1.63-3.76,2.43-5.94,2.53-.2,0-.4.01-.59.01-2.39,0-4.62-.71-6.61-2.59-.08-.08-.21-.11-.33-.11-.07,0-.13,0-.19.02-5.07,1.27-8.9,6.57-9.66,13.18-.28,2.45.18,4.33,1.85,5.67,1.23.99,2.54,1.69,3.91,2.24,3.58,1.42,7.27,1.84,11.17,1.88,2.96-.04,6.09-.32,9.16-1.29,2.02-.64,4-1.42,5.74-2.96,1.22-1.09,1.88-2.43,1.76-4.51-.4-7-4.43-12.96-9.76-14.21-.03,0-.07-.01-.1-.01h0Z"/>
          <path class="cls-4" d="M27.16,4.16c2.45,0,4.77,1.1,6.35,3.02,1.6,1.94,2.24,4.47,1.76,6.92-.5,2.53-1.67,4.57-3.58,6.24-1.36,1.19-2.94,1.81-4.56,1.81-1.42,0-2.81-.49-4.04-1.42-3-2.27-4.42-5.25-4.22-8.86.23-4.29,3.85-7.68,8.24-7.71h.06M27.16,2.64s-.05,0-.07,0c-5.17.04-9.46,3.99-9.74,9.15-.23,4.21,1.49,7.63,4.82,10.15,1.53,1.16,3.25,1.73,4.96,1.73,1.95,0,3.9-.74,5.56-2.19,2.17-1.9,3.52-4.27,4.07-7.09,1.19-6.06-3.47-11.75-9.59-11.75h0Z"/>
        </g>
      </g>
      <g id="_3L9yxS" data-name="3L9yxS">
        <g>
          <path class="cls-2" d="M38.79,5.95c-.58-.58-.91-1.15-1.03-1.77-.22-1.18.15-2.12,1.14-2.86.48-.36,1.05-.56,1.63-.56s1.14.19,1.64.54c.17.12.33.25.49.38l.72.57.72-.57c.15-.12.31-.25.47-.36.53-.36,1.09-.55,1.67-.55,1.36,0,2.57,1.04,2.8,2.42.11.68-.03,1.34-.46,2.03-.23.38-.56.71-.91,1.05l-4.28,4.29-4.6-4.61Z"/>
          <path class="cls-4" d="M40.54,1.52h0c.42,0,.84.14,1.21.4.15.11.3.23.45.35l.26.21.94.73.94-.73c.09-.07.17-.14.26-.21.14-.11.28-.23.42-.33.4-.27.82-.41,1.24-.41,1,0,1.88.77,2.05,1.79.08.5-.03.97-.35,1.5-.19.3-.47.58-.8.91l-.18.18c-1.11,1.12-2.23,2.23-3.34,3.35l-.23.23-4.07-4.08c-.47-.47-.73-.91-.82-1.38-.17-.89.09-1.55.85-2.11.35-.26.76-.4,1.18-.4M40.54,0c-.73,0-1.46.23-2.09.71-1.2.9-1.71,2.11-1.43,3.61.16.86.63,1.56,1.23,2.17,1.54,1.54,3.08,3.08,4.61,4.63.17.17.34.34.52.53.06-.06.11-.1.15-.14,1.5-1.5,3-3.01,4.5-4.51.43-.43.87-.84,1.2-1.36.48-.79.71-1.63.56-2.55C49.5,1.3,47.97,0,46.24,0c-.69,0-1.41.21-2.1.68-.26.18-.51.39-.76.59-.26-.2-.51-.41-.77-.6-.64-.45-1.36-.67-2.08-.67h0Z"/>
        </g>
      </g>
      <g>
        <rect class="cls-1" x="34.35" y="28.95" width="13.16" height="21.27" rx="2.44" ry="2.44"/>
        <line class="cls-3" x1="39.01" y1="29.83" x2="42.52" y2="29.83"/>
        <line class="cls-3" x1="38.82" y1="47.61" x2="43.16" y2="47.61"/>
      </g>
      <line class="cls-3" x1="4.1" y1="11.1" x2="10.3" y2="11.1"/>
      <line class="cls-3" x1="4.1" y1="13.62" x2="10.3" y2="13.62"/>
      <line class="cls-3" x1="4.1" y1="16.14" x2="7.81" y2="16.14"/>
    </g>
  </g>
</svg>