<?xml version="1.0" encoding="UTF-8"?>
<svg id="Layer_2" data-name="Layer 2" xmlns="http://www.w3.org/2000/svg" viewBox="0 0 48.41 47.57">
  <defs>
    <style>
      .cls-1 {
        stroke: #231f20;
        stroke-miterlimit: 10;
        stroke-width: .14px;
      }
    </style>
  </defs>
  <g id="Isi">
    <g id="fSSikd">
      <g>
        <path class="cls-1" d="M26.97,17.37c0-.14.02-.22.02-.3,0-1.84,0-3.68,0-5.52,0-.26.1-.45.32-.58.09-.05.2-.07.29-.07,1.7,0,3.41,0,5.11,0,.3,0,.53.21.58.51.01.1.02.21.02.31,0,5.5,0,11.01,0,16.51,0,.16,0,.33-.07.47-.1.23-.31.35-.57.35-.57,0-1.15,0-1.72,0-.17,0-.25.06-.26.22-.03.38-.08.75-.11,1.13-.14,1.73-.2,3.46-.09,5.2.06.87.14,1.74.29,2.6.13.79.35,1.57.56,2.34.25.91.64,1.76,1.12,2.57q.3.49.88.49c.41,0,.82,0,1.23,0,.44,0,.7.25.71.69,0,.84,0,1.69,0,2.53,0,.41-.29.68-.7.68-10.73,0-21.46,0-32.2,0-.36,0-.69-.25-.69-.66,0-.87,0-1.73,0-2.6,0-.4.25-.63.65-.64.42,0,.84,0,1.26,0,.12,0,.22-.02.23-.17.04-.74.25-1.44.5-2.13.34-.96.86-1.81,1.47-2.62.91-1.22,2.05-2.2,3.24-3.13,1.03-.8,2.1-1.54,3.13-2.34.65-.51,1.27-1.06,1.88-1.63.54-.51.94-1.13,1.19-1.84,0-.01,0-.02,0-.07-.18.04-.36.08-.54.13-.22.05-.44.13-.66.15-.88.09-1.76.17-2.65.07-.86-.1-1.73-.13-2.6-.02-.61.08-1.2.24-1.79.45-.79.28-1.55.65-2.28,1.06-.18.1-.35.2-.51.32-.19.14-.4.14-.6.07-.98-.34-1.82-.89-2.46-1.73-.43-.57-.71-1.2-.88-1.89-.13-.51-.19-1.03-.2-1.56,0-.23.07-.41.24-.55,1.3-1.05,2.35-2.35,3.42-3.63,1.02-1.21,2.01-2.43,3.04-3.64.45-.52.92-1.03,1.41-1.51.72-.69,1.54-1.25,2.43-1.7.43-.22.87-.4,1.3-.61.06-.03.13-.11.12-.17-.04-.47-.06-.94-.15-1.4-.08-.41-.21-.81-.36-1.2-.12-.31-.29-.6-.45-.9-.21-.4.05-.88.5-.89.29,0,.59.04.87.12.49.13.98.28,1.46.47,1.23.51,2.2,1.34,2.87,2.5.08.14.17.18.34.17.98-.06,1.95,0,2.92.14.77.12,1.53.32,2.27.56,1.15.38,2.22.92,3.2,1.65.43.32.83.68,1.24,1.03.06.05.13.11.24.21ZM12.73,11.97c.02.12.03.18.05.23.05.17.12.35.16.52.09.39.19.79.22,1.18.05.53.07,1.07.07,1.61,0,.12-.1.29-.2.37-.17.13-.38.22-.58.29-.92.35-1.79.8-2.58,1.39-.87.64-1.6,1.43-2.29,2.25-1.22,1.44-2.42,2.9-3.63,4.35-.8.95-1.62,1.87-2.55,2.69-.05.05-.09.15-.08.22.02.21.05.42.09.63.21,1.13.76,2.03,1.75,2.64.36.22.71.4,1.08.03,0,0,.01,0,.02,0,.8-.44,1.63-.83,2.49-1.14.61-.22,1.24-.38,1.88-.46.94-.12,1.89-.07,2.83.02.81.08,1.61.05,2.41-.07.35-.05.69-.16,1.03-.25.3-.09.6-.19.9-.29.44-.14.82.12.82.58,0,.26,0,.52-.05.77-.18.99-.67,1.83-1.32,2.58-.82.94-1.79,1.68-2.77,2.43-1.19.91-2.44,1.74-3.57,2.73-1.28,1.12-2.44,2.34-3.17,3.9-.31.66-.53,1.35-.64,2.07-.05.36-.04.36.31.36,8.52,0,17.04,0,25.56,0,.05,0,.11,0,.16,0,.17,0,.2-.06.12-.2-.14-.28-.29-.56-.43-.85-.44-.9-.73-1.84-.96-2.81-.14-.6-.26-1.22-.34-1.83-.12-.92-.23-1.84-.27-2.77-.09-1.95,0-3.91.21-5.85.02-.23.01-.24-.22-.24-.54,0-1.07,0-1.61,0-.24,0-.45-.1-.54-.33-.06-.14-.08-.29-.08-.44,0-2.94,0-5.89,0-8.83,0-.15-.02-.27-.12-.39-.55-.62-1.13-1.21-1.79-1.72-.69-.53-1.42-.99-2.22-1.33-.77-.32-1.55-.61-2.38-.77-.68-.13-1.37-.26-2.07-.26-.57,0-1.15.04-1.72.07-.34.02-.59-.08-.74-.41-.27-.58-.63-1.11-1.12-1.55-.41-.37-.88-.64-1.38-.85-.22-.1-.45-.17-.72-.28ZM28.2,19.95c0,2.54,0,5.08,0,7.62,0,.25,0,.26.25.26,1.11,0,2.22,0,3.33,0,.28,0,.29,0,.29-.29,0-5.06,0-10.11,0-15.17,0-.25,0-.25-.26-.25-1.12,0-2.23,0-3.35,0q-.26,0-.26.26c0,2.52,0,5.04,0,7.56ZM18.45,46.27c5.06,0,10.12,0,15.19,0,.07,0,.13,0,.2,0,.14,0,.2-.07.2-.2,0-.35,0-.7,0-1.04,0-.14-.07-.2-.2-.2-.05,0-.11,0-.16,0-10.14,0-20.29,0-30.43,0-.07,0-.14-.02-.2,0-.06.02-.14.08-.14.13-.01.39,0,.78,0,1.17,0,.04.08.11.14.13.06.02.13,0,.2,0,5.07,0,10.14,0,15.21,0Z"/>
        <path class="cls-1" d="M44.19,1.31c-.07,0-.14-.02-.21-.02-.4,0-.81,0-1.21,0-.35,0-.59-.26-.6-.59,0-.34.24-.61.58-.62.24-.01.48,0,.71,0,.86,0,1.71,0,2.57,0,.36,0,.64.21.66.53.01.21-.06.42-.11.62-.15.6-.32,1.19-.48,1.78-.1.36-.19.72-.3,1.07-.09.29-.43.5-.68.42-.38-.11-.56-.42-.46-.78.11-.4.22-.8.32-1.2.01-.06.01-.12.02-.23-.15.1-.26.18-.37.26-1.5,1.14-3,2.29-4.51,3.44-.11.08-.2.18-.32.24-.17.1-.18.23-.14.4.25,1.01-.32,2.13-1.32,2.43-1.05.32-2.07-.04-2.56-1.14-.09-.2-.11-.42-.18-.63-.03-.08-.09-.17-.15-.19-.51-.16-1.02-.29-1.53-.44-.54-.15-1.08-.31-1.62-.46-.11-.03-.22-.08-.34-.08-.07,0-.15.07-.2.12-.35.39-.75.67-1.28.75-.49.07-.96,0-1.39-.26-.13-.08-.21-.05-.31.03-.9.69-1.81,1.38-2.72,2.08-.46.35-.91.7-1.37,1.04-.11.08-.13.15-.09.28.25.75-.11,1.72-.75,2.18-.47.34-.98.49-1.53.4-.65-.11-1.18-.44-1.51-1.04-.53-.97-.22-2.27.82-2.83.68-.36,1.37-.35,2.03.05.12.08.2.06.31-.02,1.37-1.05,2.74-2.09,4.11-3.15.05-.04.1-.16.08-.23-.27-.88.15-1.86.86-2.3,1.08-.67,2.39-.31,2.98.87.1.19.12.42.17.63.03.13.08.19.21.23.82.23,1.64.46,2.46.7.29.08.58.17.87.26.12.04.21.03.3-.09.63-.82,1.71-1.04,2.62-.53.17.1.29.05.44-.06,1.64-1.25,3.29-2.5,4.93-3.75.06-.04.11-.09.17-.14v-.05ZM29.31,4.95c0,.49.35.84.84.84.48,0,.84-.36.84-.85,0-.46-.38-.82-.86-.83-.4-.01-.84.42-.81.84ZM22.62,11.52c.43.04.85-.38.84-.82,0-.52-.39-.86-.87-.87-.4,0-.8.34-.8.85,0,.48.36.83.83.83ZM36.81,7.09c.03.54.38.85.85.85.46,0,.81-.31.84-.84.02-.43-.4-.83-.85-.84-.43,0-.84.4-.84.83Z"/>
        <path class="cls-1" d="M48.33,18.33c0,3.33,0,6.66,0,9.99,0,.33-.11.57-.43.69-.08.03-.17.04-.25.04-1.66,0-3.32,0-4.98,0-.37,0-.62-.23-.66-.6,0-.09,0-.18,0-.27,0-6.58,0-13.15,0-19.73,0-.05,0-.11,0-.16.01-.42.25-.65.67-.65.96,0,1.92,0,2.88,0,.68,0,1.36,0,2.03,0,.5,0,.74.24.74.74,0,3.32,0,6.64,0,9.97ZM47.12,18.34c0-3.08,0-6.15,0-9.23,0-.26,0-.27-.27-.27-1.11,0-2.22,0-3.33,0-.27,0-.29.02-.29.29,0,6.09,0,12.18,0,18.26,0,.08,0,.16,0,.24,0,.13.06.18.19.18,1.17,0,2.34,0,3.52,0,.13,0,.18-.06.17-.18,0-.07,0-.13,0-.2,0-3.03,0-6.07,0-9.1Z"/>
        <path class="cls-1" d="M34.49,21.67c0-2.2,0-4.4,0-6.6,0-.47.28-.78.78-.77,1.61.02,3.21,0,4.82,0,.5,0,.75.25.75.76,0,4.41,0,8.82,0,13.23,0,.38-.25.76-.76.76-1.62-.02-3.25,0-4.87,0-.44,0-.71-.26-.71-.7,0-2.22,0-4.45,0-6.67ZM35.71,21.67c0,1.95,0,3.91,0,5.86,0,.28,0,.29.28.29,1.11,0,2.21,0,3.32,0,.29,0,.3-.01.3-.3,0-3.9,0-7.8,0-11.7,0-.26-.02-.28-.28-.28-1.11,0-2.22,0-3.33,0-.28,0-.29.01-.29.29,0,1.95,0,3.9,0,5.84Z"/>
        <path class="cls-1" d="M25.79,24.32c0,1.32-.01,2.65,0,3.97,0,.47-.31.76-.75.76-1.62-.02-3.24-.01-4.85,0-.41,0-.72-.26-.72-.73,0-2.48,0-4.97,0-7.45,0-.22,0-.44,0-.66.01-.39.25-.62.64-.63,1.67,0,3.35,0,5.02,0,.4,0,.65.26.65.68,0,1.36,0,2.71,0,4.07ZM24.57,24.33c0-1.1,0-2.2,0-3.3,0-.18-.06-.23-.23-.23-1.13,0-2.26,0-3.39,0-.24,0-.26.02-.26.27,0,2.16,0,4.32,0,6.48,0,.26.02.27.27.27,1.12,0,2.23,0,3.35,0,.25,0,.26,0,.26-.25,0-1.08,0-2.16,0-3.24Z"/>
      </g>
    </g>
  </g>
</svg>