<?xml version="1.0" encoding="UTF-8"?>
<svg id="Layer_2" data-name="Layer 2" xmlns="http://www.w3.org/2000/svg" viewBox="0 0 48.84 41.74">
  <defs>
    <style>
      .cls-1 {
        stroke: #f0f1f1;
        stroke-miterlimit: 10;
        stroke-width: .28px;
      }
    </style>
  </defs>
  <g id="Isi">
    <g id="Gxn2qj">
      <g>
        <path class="cls-1" d="M12.36,41.6c-1.06-.06-1.91-.41-2.42-1.32-.2-.37-.33-.78-.48-1.18-.24-.64-.47-1.29-.7-1.93-.23-.63-.45-1.25-.68-1.88-.23-.63-.46-1.26-.69-1.89-.19-.52-.38-1.04-.56-1.56-.05-.15-.1-.2-.26-.14-.46.18-.94.29-1.43.3-.77.02-1.42-.27-1.99-.78-.43-.39-.69-.88-.88-1.43-.21-.63-.46-1.25-.68-1.88-.19-.53-.38-1.06-.57-1.59-.23-.63-.45-1.25-.68-1.88-.23-.62-.25-1.24-.08-1.87.23-.86.75-1.49,1.55-1.88.39-.19.81-.32,1.22-.47.64-.24,1.27-.46,1.91-.7.52-.19,1.05-.38,1.57-.57.54-.2,1.08-.39,1.63-.59.53-.19,1.06-.38,1.59-.58.14-.05.3-.13.4-.24,1.24-1.4,2.46-2.81,3.69-4.22,2-2.29,4-4.59,6.01-6.88.36-.42.73-.83,1.09-1.25.08-.09.13-.23.15-.35.17-1.09.72-1.89,1.77-2.28,1.28-.48,2.7.05,3.32,1.2.16.29.26.61.37.91.23.63.46,1.26.69,1.9.2.54.39,1.09.59,1.63.23.62.45,1.24.68,1.86.23.63.46,1.26.69,1.89.08.21.14.44.24.64.03.06.14.11.22.12.37.04.74.04,1.1.1.87.15,1.59.57,2.19,1.22.47.52.81,1.11.96,1.79.12.51.15,1.02.07,1.55-.15.92-.55,1.7-1.2,2.34-.13.12-.27.24-.41.34-.13.09-.15.2-.1.33.12.33.24.65.36.98.19.53.39,1.06.58,1.59.2.54.39,1.07.58,1.61.19.52.38,1.05.57,1.57.2.55.41,1.09.6,1.64.18.54.44,1.05.49,1.64.1,1.21-.55,2.37-1.69,2.8-.99.37-2.01.24-2.88-.55-.16-.14-.33-.21-.52-.24-1.12-.18-2.25-.35-3.37-.52-1.06-.16-2.11-.3-3.17-.46-.79-.12-1.57-.26-2.35-.38-.55-.09-1.11-.16-1.66-.25-.57-.09-1.13-.18-1.69-.27-.54-.09-1.08-.17-1.62-.25-.58-.09-1.17-.18-1.75-.28-.34-.05-.67-.12-1.01.05-.11.06-.15.11-.11.22.22.61.45,1.21.67,1.82.19.53.38,1.06.57,1.59.19.52.38,1.05.57,1.57.2.54.39,1.07.59,1.61.16.43.3.86.47,1.29.54,1.38,0,2.94-1.43,3.54-.7.29-1.42.55-2.14.8-.18.06-.39.05-.53.07ZM21.77,7.59s-.02-.02-.03-.02c-.08-.01-.43.48-.48.55-.21.24-.42.48-.63.72-.42.48-.84.96-1.26,1.43-1.63,1.87-3.26,3.73-4.89,5.6-.82.94-1.65,1.87-2.46,2.81-.06.07-.1.19-.09.28,0,.1.06.19.1.29.3.82.61,1.64.91,2.46.3.82.59,1.65.89,2.47.3.84.61,1.68.92,2.52.03.08.12.17.19.18.48.09.95.15,1.43.23.53.08,1.07.16,1.6.25.59.09,1.18.19,1.77.28.54.08,1.08.17,1.62.25.57.09,1.13.18,1.69.27.55.09,1.11.17,1.66.26.6.09,1.21.18,1.81.28.59.09,1.18.18,1.77.27.38.06.76.11,1.13.16.1.01.19,0,.14-.14-.07-.21-.15-.42-.23-.62-.19-.53-.39-1.06-.58-1.59-.19-.52-.38-1.05-.57-1.57-.23-.63-.46-1.26-.69-1.89-.23-.64-.46-1.28-.69-1.91-.23-.62-.45-1.24-.68-1.86-.19-.54-.39-1.07-.58-1.61-.23-.63-.46-1.25-.68-1.88-.23-.63-.45-1.25-.68-1.88-.23-.63-.46-1.26-.69-1.89-.23-.62-.45-1.24-.67-1.86-.24-.65-.47-1.3-.71-1.95-.1-.28-.21-.55-.31-.83,0-.01-.01-.03-.02-.04ZM12.6,27.19c-.22-.61-.42-1.18-.62-1.75-.18-.51-.37-1.01-.55-1.52-.24-.65-.47-1.3-.71-1.95-.22-.6-.44-1.2-.65-1.81-.04-.12-.12-.16-.25-.11-.62.24-1.25.46-1.87.69-.82.3-1.63.59-2.45.89-.85.31-1.69.62-2.54.93-.49.17-.77.63-.62,1.05.31.87.62,1.74.94,2.61.37,1.02.76,2.04,1.12,3.07.17.5.77.62,1.11.5.13-.04.26-.1.39-.15,1.15-.42,2.31-.85,3.46-1.27.91-.33,1.82-.66,2.74-.99.17-.06.33-.14.51-.21ZM33.28,29.61c-.07-.19-.16-.46-.26-.74-.19-.54-.39-1.07-.58-1.61-.23-.63-.45-1.25-.68-1.88-.23-.62-.45-1.24-.68-1.86-.2-.55-.4-1.1-.6-1.64-.19-.53-.38-1.06-.57-1.59-.19-.52-.38-1.05-.57-1.57-.23-.63-.46-1.26-.69-1.89-.23-.63-.46-1.26-.69-1.9-.23-.62-.45-1.24-.68-1.86-.2-.54-.39-1.09-.59-1.63-.23-.62-.45-1.24-.68-1.86-.2-.54-.39-1.08-.59-1.63-.19-.53-.38-1.06-.58-1.59-.18-.49-.35-.99-.54-1.48-.12-.31-.54-.42-.82-.22-.24.17-.31.4-.2.73.18.53.38,1.05.57,1.57.23.63.45,1.26.68,1.9.19.52.38,1.05.57,1.57.19.53.39,1.06.58,1.59.2.54.39,1.08.59,1.63.23.62.45,1.24.68,1.86.23.63.46,1.26.69,1.9.19.53.39,1.06.58,1.59.19.52.38,1.05.57,1.57.2.54.4,1.08.59,1.63.19.52.38,1.05.57,1.57.2.54.4,1.08.59,1.63.23.62.45,1.24.67,1.86.23.64.46,1.28.7,1.91.1.27.2.55.32.81.1.22.39.33.62.27.25-.07.43-.3.43-.64ZM14.51,38.23s0-.08-.02-.13c-.21-.58-.42-1.17-.63-1.75-.37-1.01-.75-2.02-1.11-3.03-.39-1.06-.77-2.12-1.15-3.18-.07-.19-.13-.21-.32-.14-.25.1-.51.19-.77.28-.51.19-1.02.37-1.54.56-.13.05-.17.14-.12.27.25.68.5,1.37.75,2.05.34.92.68,1.83,1.01,2.75.37,1.01.74,2.02,1.09,3.04.14.41.49.57.86.42.52-.21,1.05-.38,1.57-.58.26-.1.39-.29.39-.56ZM30.35,14.97s-.06.05-.03.12c.09.26.18.52.28.78.13.36.26.73.4,1.09.12.32.18.67.39.95,0,0,.02.02.03.02.01,0,.02,0,.03-.01.42-.32.44-.98.37-1.46-.09-.53-.41-1.01-.88-1.29-.08-.05-.44-.23-.57-.2Z"/>
        <path class="cls-1" d="M36.16,15.61c-.54-.02-.91-.35-1.05-.92-.08-.35.14-.97.58-1.14.44-.17.89-.34,1.33-.51.64-.24,1.27-.47,1.91-.7.62-.23,1.24-.45,1.86-.68.53-.19,1.06-.39,1.59-.58.63-.23,1.26-.46,1.89-.69.31-.11.61-.2.95-.11.43.12.78.55.79,1.01,0,.4-.26.86-.69,1.02-1.02.37-2.03.75-3.05,1.12-1.11.4-2.22.8-3.33,1.2-.81.29-1.62.6-2.43.89-.11.04-.24.05-.35.07Z"/>
        <path class="cls-1" d="M41.08,1.37c0,.25-.21.53-.48.76-.93.82-1.87,1.63-2.8,2.44-1.19,1.04-2.38,2.07-3.56,3.11-.51.45-1.12.39-1.51.07-.45-.37-.53-1.05-.13-1.48.35-.37.75-.7,1.13-1.04,1.81-1.58,3.62-3.16,5.43-4.74.24-.21.5-.37.85-.36.6.02,1.07.5,1.06,1.23Z"/>
        <path class="cls-1" d="M43.34,23.24c-1.43-.02-2.85-.04-4.28-.06-.37,0-.72-.1-.97-.41-.26-.32-.32-.7-.16-1.08.15-.34.4-.59.8-.63.14-.02.28-.03.42-.03,2.81.05,5.62.1,8.44.15.73.01,1.19.54,1.09,1.27-.05.42-.46.83-.88.85-.53.02-1.06,0-1.58,0-.96,0-1.92,0-2.88,0,0-.02,0-.04,0-.06Z"/>
      </g>
    </g>
  </g>
</svg>